<?xml version="1.0" encoding="utf-8"?>
<svg version="1.1" xmlns="http://www.w3.org/2000/svg" xmlns:xlink="http://www.w3.org/1999/xlink" x="0px" y="0px"
	 viewBox="0 0 311.26 171.39" style="enable-background:new 0 0 311.26 171.39;" xml:space="preserve">
<style type="text/css">
	.st0{fill:#FFFFFF;}
</style>
<g id="Lager_2">
	<g>
		<path class="st0" d="M170.5,113.82c-0.5,1.69-1.75,2.98-4.01,2.98c-3.07,0-4.68-2.44-4.68-5.45c0-2.88,1.59-5.51,4.7-5.51
			c2.3,0,3.66,1.28,4.01,3.07h-0.82c-0.49-1.39-1.39-2.3-3.23-2.3c-2.65,0-3.77,2.43-3.77,4.73c0,2.29,1.1,4.7,3.83,4.7
			c1.74,0,2.62-0.9,3.16-2.21H170.5z"/>
		<path class="st0" d="M181.79,111.25c0,2.91-1.56,5.57-4.85,5.57c-3.01,0-4.76-2.43-4.76-5.49c0-3.02,1.69-5.49,4.87-5.49
			C179.98,105.84,181.79,108.14,181.79,111.25z M173.06,111.29c0,2.46,1.36,4.78,3.92,4.78c2.76,0,3.92-2.26,3.92-4.79
			c0-2.49-1.31-4.67-3.89-4.67C174.27,106.6,173.06,108.87,173.06,111.29z"/>
		<path class="st0" d="M184.14,116.67v-10.68h1.22c1.66,2.56,5.57,8.53,6.24,9.69h0.02c-0.09-1.54-0.08-3.11-0.08-4.85v-4.84h0.84
			v10.68h-1.13c-1.59-2.47-5.55-8.68-6.32-9.86h-0.02c0.08,1.4,0.06,2.96,0.06,4.9v4.96H184.14z"/>
		<path class="st0" d="M195.45,113.8c0.32,1.42,1.27,2.26,3.02,2.26c1.95,0,2.7-0.98,2.7-2.14c0-1.21-0.53-1.95-2.88-2.53
			c-2.26-0.56-3.23-1.3-3.23-2.84c0-1.4,1.02-2.72,3.31-2.72c2.35,0,3.34,1.43,3.48,2.73h-0.85c-0.24-1.14-0.99-1.97-2.67-1.97
			c-1.54,0-2.38,0.72-2.38,1.91c0,1.18,0.7,1.63,2.67,2.12c3.01,0.75,3.45,1.95,3.45,3.23c0,1.57-1.14,2.93-3.62,2.93
			c-2.67,0-3.65-1.56-3.85-2.99H195.45z"/>
		<path class="st0" d="M204.88,105.99v6.47c0,2.84,1.6,3.57,3.11,3.57c1.79,0,3.11-0.75,3.11-3.57v-6.47h0.84v6.42
			c0,3.34-1.77,4.38-3.98,4.38c-2.11,0-3.94-1.14-3.94-4.24v-6.56H204.88z"/>
		<path class="st0" d="M214.94,105.99h0.82v9.92h5.74l-0.15,0.76h-6.41V105.99z"/>
		<path class="st0" d="M223.76,106.75h-3.59v-0.76h8.03v0.76h-3.6v9.92h-0.84V106.75z"/>
		<path class="st0" d="M230.62,105.99v10.68h-0.82v-10.68H230.62z"/>
		<path class="st0" d="M233.76,116.67v-10.68h1.22c1.66,2.56,5.57,8.53,6.24,9.69h0.02c-0.09-1.54-0.08-3.11-0.08-4.85v-4.84H242
			v10.68h-1.13c-1.59-2.47-5.55-8.68-6.32-9.86h-0.02c0.08,1.4,0.06,2.96,0.06,4.9v4.96H233.76z"/>
		<path class="st0" d="M253.23,116.67h-0.69c-0.06-0.12-0.09-0.67-0.11-1.71c-0.38,0.73-1.22,1.83-3.45,1.83
			c-3.07,0-4.64-2.33-4.64-5.37c0-3.19,1.68-5.58,4.81-5.58c2.3,0,3.83,1.21,4.17,3.17h-0.82c-0.46-1.51-1.51-2.41-3.37-2.41
			c-2.67,0-3.89,2.08-3.89,4.78c0,2.44,1.18,4.65,3.78,4.65c2.67,0,3.42-1.74,3.42-4.1v-0.12h-3.45v-0.76h4.24V116.67z"/>
	</g>
</g>
<g id="Lager_1">
	<g>
		<path class="st0" d="M91.33,66.71l-0.09,23.03l0.09,8.96h-15v-4.13c-2.48,1.7-4.74,2.92-6.77,3.66c-2.04,0.74-4.17,1.11-6.39,1.11
			c-4.08,0-7.03-1.21-8.87-3.63c-0.68-0.9-1.16-1.92-1.42-3.06c-0.26-1.14-0.4-2.77-0.4-4.88l0.06-6.86l0.03-4.57l-0.15-9.64h15
			l-0.18,14.71l0.03,5.57l0.03,3.75c0,2.25,0.14,3.59,0.41,4.04c0.33,0.51,0.96,0.76,1.88,0.76c0.94,0,1.91-0.24,2.92-0.73
			c1.01-0.49,2.31-1.36,3.91-2.61l0.03-3.84l0.06-10.46l-0.18-10.28v-0.91H91.33z"/>
		<path class="st0" d="M120.9,67.97c1.68,0.82,3.09,1.9,4.22,3.25c1.5,1.82,2.26,3.92,2.26,6.3c0,1.7-0.43,3.31-1.29,4.83
			c-0.86,1.52-2.06,2.8-3.6,3.84c-2.85,1.93-6.29,2.9-10.31,2.9c-1.86,0-3.56-0.17-5.13-0.5c-1.56-0.33-2.99-0.83-4.28-1.49
			c-0.92,0.63-1.38,1.26-1.38,1.9c0,0.76,0.52,1.21,1.55,1.35c2.25,0.29,3.79,0.38,4.63,0.26l0.18-0.03h8.76l0.44-0.03
			c2.93-0.18,5.04,0.31,6.33,1.46c1,0.92,1.49,1.99,1.49,3.22c0,1.04-0.35,1.97-1.05,2.81c-1.17,1.39-2.75,2.08-4.75,2.08
			c-0.37,0-0.84-0.02-1.41-0.06c0.31-0.49,0.47-0.87,0.47-1.14c0-0.6-0.55-0.91-1.64-0.91c-0.94,0-2.9,0.21-5.89,0.62
			c-2.09,0.29-3.82,0.44-5.19,0.44c-2.15,0-4.01-0.46-5.6-1.38c-0.92-0.53-1.64-1.25-2.17-2.17c-0.53-0.92-0.79-1.91-0.79-2.99
			c0-1.21,0.32-2.32,0.95-3.33c0.63-1.01,1.69-2.07,3.18-3.18c-1.39-0.88-2.46-2.03-3.22-3.44c-0.76-1.42-1.14-2.95-1.14-4.61
			c0-3.94,1.98-7.09,5.95-9.43c2.97-1.76,6.57-2.64,10.81-2.64c0.94,0,1.91,0.05,2.93,0.15c1.39,0.12,2.39,0.18,3.02,0.18
			c1.54,0,2.67-0.68,3.37-2.05c0.41-0.82,0.85-1.23,1.32-1.23c0.37,0,0.69,0.12,0.97,0.37c0.27,0.24,0.41,0.54,0.41,0.89
			c0,0.7-0.39,1.39-1.17,2.07C123.34,66.96,122.26,67.52,120.9,67.97z M109.38,71.19v12.39c0,1.48,0.12,2.4,0.35,2.75
			c0.39,0.57,1.2,0.85,2.43,0.85c1.13,0,1.89-0.27,2.27-0.81c0.38-0.54,0.57-1.6,0.57-3.18V71.25c0-1.33-0.19-2.22-0.57-2.67
			c-0.38-0.45-1.13-0.67-2.24-0.67s-1.86,0.22-2.24,0.67C109.57,69.03,109.38,69.9,109.38,71.19z"/>
		<path class="st0" d="M147,58.71l0.03,1.49l-0.06,10.31l-0.03,4.45l-0.06,8.12L147,97.56v1.14h-14.97v-1.38l0.07-4.66l0.04-8.44
			l0.07-11.04l-0.03-5.95l-0.09-6.53l0.03-1.99H147z"/>
		<path class="st0" d="M165.48,83.64v9.08c0,1.76,0.11,2.87,0.32,3.34c0.41,0.9,1.38,1.35,2.9,1.35c2.27,0,4.51-0.62,6.72-1.86
			c2.22-1.24,4.14-2.95,5.76-5.14c0.53-0.72,0.91-1.18,1.14-1.38c0.23-0.19,0.49-0.29,0.76-0.29c0.33,0,0.61,0.12,0.82,0.37
			c0.21,0.24,0.32,0.55,0.32,0.92c0,0.82-0.65,1.92-1.96,3.31c-1.72,1.78-3.85,3.22-6.4,4.34s-5.03,1.67-7.46,1.67
			c-4.16,0-7.83-1.4-11.02-4.19c-1.86-1.64-3.28-3.66-4.28-6.06c-0.88-2.11-1.32-4.22-1.32-6.33c0-2.03,0.39-4.07,1.17-6.11
			c0.78-2.04,1.86-3.8,3.22-5.29c1.58-1.74,3.46-3.09,5.62-4.04c2.13-0.94,4.35-1.41,6.68-1.41c3.61,0,6.88,1.06,9.81,3.19
			c4.57,3.32,6.84,8.13,6.8,14.44h-6.83l-8.79,0.03L165.48,83.64z M172.98,81.71v-8.54c-0.04-1.83-0.08-2.93-0.12-3.29
			c-0.04-0.36-0.18-0.7-0.41-1.01c-0.55-0.76-1.66-1.14-3.34-1.14c-1.72,0-2.79,0.44-3.22,1.32c-0.27,0.53-0.41,1.9-0.41,4.12v8.54
			l3.57,0.12L172.98,81.71z"/>
		<path class="st0" d="M227.8,71.45c2.54-1.95,4.91-3.36,7.1-4.23c2.2-0.87,4.52-1.3,6.96-1.3c4.47,0,7.59,1.44,9.35,4.31
			c0.51,0.86,0.86,1.85,1.05,2.97c0.2,1.12,0.29,2.79,0.29,5l-0.12,7.73v1.82l0.18,9.76l0.03,1.2h-15.06l0.12-9.26l0.15-9.32
			l-0.03-3.78c-0.02-1.39-0.02-2.2,0-2.43c0.02-1.54-0.15-2.61-0.5-3.19s-0.99-0.88-1.9-0.88c-0.98,0-2.05,0.28-3.21,0.85
			c-1.16,0.57-2.42,1.43-3.76,2.58c0.1,0.76,0.15,1.86,0.15,3.28l-0.06,7.32l-0.06,8.23c0,2.42,0.05,4.62,0.15,6.59h-15.03
			l0.07-6.39l0.11-13.77c0-4.53-0.06-7.03-0.18-7.5c-0.21-0.84-0.92-1.26-2.11-1.26c-0.9,0-1.91,0.28-3.03,0.83s-2.37,1.4-3.74,2.53
			l-0.12,12.39l0.15,13.15h-15.03v-1.17l0.06-5.33l0.03-7.27l0.03-7.03l-0.12-11.19h15v4.1c2.19-1.64,4.37-2.87,6.55-3.68
			c2.18-0.81,4.35-1.22,6.52-1.22c3.26,0,5.89,0.82,7.88,2.46C226.46,69.02,227.17,70.05,227.8,71.45z"/>
	</g>
</g>
</svg>
